<svg xmlns="http://www.w3.org/2000/svg" version="1.1" width="100%" height="100%" viewBox="0 0 115.8 115.8" id="Layer_1" xml:space="preserve"><style type="text/css" id="style3005"/><g id="g3007" fill="#fff" fill-opacity=".799"><path d="M99.2 89L77.4 69.3l-8.1 8.1L89 99.2l-16.6 16.6h43.4V72.4L99.2 89zm0 0" id="path3009"/><path d="M43.4 0H0v43.4l16.6-16.6 21.7 19.5 8.1-8.1-19.6-21.6L43.4 0zm0 0" id="path3011"/><path d="M46.5 77.4l-8.1-8.1L16.6 89 0 72.4v43.4h43.4L26.8 99.2l19.7-21.8zm0 0" id="path3013"/><path d="M115.8 0H72.4L89 16.6 69.4 38.3l8.1 8.1 21.7-19.5 16.6 16.6V0zm0 0" id="path3015"/></g></svg>